<svg width="23" height="24" viewBox="0 0 23 24" fill="none" xmlns="http://www.w3.org/2000/svg">
<path d="M11.25 23.25C17.4632 23.25 22.5 18.2132 22.5 12C22.5 5.7868 17.4632 0.75 11.25 0.75C5.0368 0.75 0 5.7868 0 12C0 18.2132 5.0368 23.25 11.25 23.25Z" fill="white"/>
<path d="M11.2491 6.19317C13.1407 6.19317 13.3641 6.19984 14.1107 6.23484C14.8007 6.2665 15.1757 6.3815 15.4257 6.47817C15.7557 6.6065 15.9924 6.75984 16.2407 7.00817C16.4891 7.2565 16.6424 7.4915 16.7707 7.82317C16.8674 8.07317 16.9824 8.44817 17.0141 9.13817C17.0474 9.88484 17.0557 10.1098 17.0557 11.9998C17.0557 13.8898 17.0491 14.1148 17.0141 14.8615C16.9824 15.5515 16.8674 15.9265 16.7707 16.1765C16.6424 16.5065 16.4891 16.7432 16.2407 16.9915C15.9924 17.2398 15.7574 17.3932 15.4257 17.5215C15.1757 17.6182 14.8007 17.7332 14.1107 17.7648C13.3641 17.7982 13.1407 17.8065 11.2491 17.8065C9.3574 17.8065 9.13406 17.7998 8.3874 17.7648C7.6974 17.7332 7.3224 17.6182 7.0724 17.5215C6.7424 17.3932 6.50573 17.2398 6.2574 16.9915C6.00906 16.7432 5.85573 16.5082 5.7274 16.1765C5.63073 15.9265 5.51573 15.5515 5.48406 14.8615C5.45073 14.1148 5.4424 13.8898 5.4424 11.9998C5.4424 10.1098 5.44906 9.88484 5.48406 9.13817C5.51573 8.44817 5.63073 8.07317 5.7274 7.82317C5.85573 7.49317 6.00906 7.2565 6.2574 7.00817C6.50573 6.75984 6.74073 6.6065 7.0724 6.47817C7.3224 6.3815 7.6974 6.2665 8.3874 6.23484C9.13406 6.2015 9.35906 6.19317 11.2491 6.19317ZM11.2491 4.9165C9.32573 4.9165 9.08406 4.92484 8.32906 4.95984C7.57573 4.99484 7.06073 5.11317 6.60906 5.28984C6.14406 5.4715 5.74906 5.71317 5.35406 6.1065C4.96073 6.49984 4.7174 6.89484 4.5374 7.3615C4.3624 7.8115 4.2424 8.3265 4.2074 9.0815C4.1724 9.8365 4.16406 10.0782 4.16406 12.0015C4.16406 13.9248 4.1724 14.1665 4.2074 14.9215C4.2424 15.6748 4.36073 16.1898 4.5374 16.6415C4.71906 17.1065 4.96073 17.5015 5.35406 17.8965C5.7474 18.2898 6.1424 18.5332 6.60906 18.7132C7.05906 18.8882 7.57406 19.0082 8.32906 19.0432C9.08406 19.0782 9.32573 19.0865 11.2491 19.0865C13.1724 19.0865 13.4141 19.0782 14.1691 19.0432C14.9224 19.0082 15.4374 18.8898 15.8891 18.7132C16.3541 18.5315 16.7491 18.2898 17.1441 17.8965C17.5374 17.5032 17.7807 17.1082 17.9607 16.6415C18.1357 16.1915 18.2557 15.6765 18.2907 14.9215C18.3257 14.1665 18.3341 13.9248 18.3341 12.0015C18.3341 10.0782 18.3257 9.8365 18.2907 9.0815C18.2557 8.32817 18.1374 7.81317 17.9607 7.3615C17.7791 6.8965 17.5374 6.5015 17.1441 6.1065C16.7507 5.71317 16.3557 5.46984 15.8891 5.28984C15.4391 5.11484 14.9241 4.99484 14.1691 4.95984C13.4141 4.92484 13.1724 4.9165 11.2491 4.9165Z" fill="black"/>
<path d="M11.2499 8.36328C9.24161 8.36328 7.61328 9.99161 7.61328 11.9999C7.61328 14.0083 9.24161 15.6366 11.2499 15.6366C13.2583 15.6366 14.8866 14.0083 14.8866 11.9999C14.8866 9.99161 13.2583 8.36328 11.2499 8.36328ZM11.2499 14.3616C9.94661 14.3616 8.88828 13.3049 8.88828 11.9999C8.88828 10.6949 9.94495 9.63828 11.2499 9.63828C12.5549 9.63828 13.6116 10.6949 13.6116 11.9999C13.6116 13.3049 12.5549 14.3616 11.2499 14.3616Z" fill="black"/>
<path d="M15.0297 9.06816C15.4991 9.06816 15.8797 8.68761 15.8797 8.21816C15.8797 7.74872 15.4991 7.36816 15.0297 7.36816C14.5602 7.36816 14.1797 7.74872 14.1797 8.21816C14.1797 8.68761 14.5602 9.06816 15.0297 9.06816Z" fill="black"/>
</svg>
