<svg width="46" height="46" viewBox="0 0 46 46" fill="none" xmlns="http://www.w3.org/2000/svg">
<g clip-path="url(#clip0_2521_4828)">
<path d="M23 15.333C20.9667 15.333 19.0166 16.1407 17.5788 17.5785C16.1411 19.0163 15.3333 20.9663 15.3333 22.9997C15.3333 25.033 16.1411 26.983 17.5788 28.4208C19.0166 29.8586 20.9667 30.6663 23 30.6663C25.0333 30.6663 26.9834 29.8586 28.4211 28.4208C29.8589 26.983 30.6667 25.033 30.6667 22.9997C30.6667 20.9663 29.8589 19.0163 28.4211 17.5785C26.9834 16.1407 25.0333 15.333 23 15.333Z" fill="white"/>
<path fill-rule="evenodd" clip-rule="evenodd" d="M13.8 0C10.14 0 6.62993 1.45392 4.04193 4.04193C1.45392 6.62993 0 10.14 0 13.8L0 32.2C0 35.86 1.45392 39.3701 4.04193 41.9581C6.62993 44.5461 10.14 46 13.8 46H32.2C35.86 46 39.3701 44.5461 41.9581 41.9581C44.5461 39.3701 46 35.86 46 32.2V13.8C46 10.14 44.5461 6.62993 41.9581 4.04193C39.3701 1.45392 35.86 0 32.2 0L13.8 0ZM12.2667 23C12.2667 20.1533 13.3975 17.4233 15.4104 15.4104C17.4233 13.3975 20.1533 12.2667 23 12.2667C25.8467 12.2667 28.5767 13.3975 30.5896 15.4104C32.6025 17.4233 33.7333 20.1533 33.7333 23C33.7333 25.8467 32.6025 28.5767 30.5896 30.5896C28.5767 32.6025 25.8467 33.7333 23 33.7333C20.1533 33.7333 17.4233 32.6025 15.4104 30.5896C13.3975 28.5767 12.2667 25.8467 12.2667 23ZM33.7333 12.2667H36.8V9.2H33.7333V12.2667Z" fill="white"/>
</g>
<defs>
<clipPath id="clip0_2521_4828">
<rect width="46" height="46" fill="white"/>
</clipPath>
</defs>
</svg>
