<svg width="23" height="24" viewBox="0 0 23 24" fill="none" xmlns="http://www.w3.org/2000/svg">
<path d="M11.75 0.75C5.53776 0.75 0.5 5.78776 0.5 12C0.5 18.2122 5.53776 23.25 11.75 23.25C17.9622 23.25 23 18.2122 23 12C23 5.78776 17.9622 0.75 11.75 0.75ZM17.3939 9.3577V10.881C16.6756 10.8812 15.9777 10.7405 15.3195 10.4628C14.8963 10.2841 14.5019 10.0539 14.1413 9.77566L14.1521 14.4643C14.1476 15.5201 13.7299 16.5121 12.9739 17.2593C12.3586 17.8675 11.5791 18.2543 10.7341 18.3795C10.5355 18.4089 10.3335 18.4239 10.1291 18.4239C9.2246 18.4239 8.36586 18.1309 7.66339 17.5903C7.53121 17.4885 7.40478 17.3782 7.28441 17.2593C6.46509 16.4495 6.0426 15.352 6.11375 14.1974C6.16802 13.3186 6.51989 12.4804 7.10647 11.8235C7.88255 10.9541 8.96826 10.4716 10.1291 10.4716C10.3335 10.4716 10.5355 10.487 10.7341 10.5164V11.0796V12.6463C10.5458 12.5842 10.3448 12.5501 10.1354 12.5501C9.07483 12.5501 8.2168 13.4153 8.23266 14.4767C8.24272 15.1558 8.61367 15.7494 9.16079 16.0766C9.41791 16.2304 9.71371 16.3257 10.0294 16.343C10.2767 16.3566 10.5142 16.3222 10.7341 16.2496C11.4918 15.9992 12.0385 15.2875 12.0385 14.4481L12.041 11.3083V5.57607H14.1387C14.1408 5.78394 14.1618 5.98674 14.201 6.18327C14.3594 6.97872 14.8078 7.66884 15.4318 8.13932C15.9759 8.54972 16.6535 8.793 17.3878 8.793C17.3883 8.793 17.3944 8.793 17.3939 8.79252V9.3577H17.3939Z" fill="white"/>
</svg>
