<svg width="27" height="26" viewBox="0 0 27 26" fill="none" xmlns="http://www.w3.org/2000/svg">
<path fill-rule="evenodd" clip-rule="evenodd" d="M7.75573 2.81954C6.4178 1.48508 6.37221 1.36601 6.9866 0.81097C7.56174 0.291419 7.62877 0.320369 9.03979 1.69696C9.29481 1.94575 9.52218 2.1692 9.72637 2.36988C10.8894 3.51287 11.3004 3.91686 11.787 4.055C12.053 4.13051 12.3415 4.12657 12.7878 4.12047C12.9312 4.11851 13.0908 4.11633 13.2712 4.11649C14.9877 4.11794 14.9877 4.11794 16.8195 2.33865C18.8647 0.352107 18.8738 0.347394 19.4853 0.929172C20.0854 1.49999 20.0484 1.59472 18.7214 2.88658C18.0859 3.50529 17.5658 4.02965 17.5658 4.05186C17.5658 4.07398 18.8746 4.12429 20.4742 4.16343C23.3827 4.2346 23.3827 4.2346 23.9549 4.52352C25.0888 5.09587 25.9573 6.15517 26.2667 7.34325C26.5295 8.35206 26.4829 20.0306 26.2126 20.9149C25.5912 22.9474 24.3413 23.9305 22.3787 23.9305C21.4282 23.9305 21.4282 23.9305 21.3622 24.2431C21.0205 25.8584 18.8766 25.8941 18.4766 24.2912C18.3722 23.8729 8.28653 23.8729 8.13784 24.2912C7.59117 25.8299 5.78553 25.9232 5.34552 24.4354C5.30494 24.2982 5.27798 24.2071 5.21939 24.1465C5.10345 24.0267 4.86363 24.0267 4.14917 24.0267C2.1858 24.0267 0.814786 22.9068 0.199731 20.8006C-0.062353 19.9035 -0.0684121 8.00736 0.192806 7.15042C0.936643 4.70933 1.95545 4.1793 5.99549 4.13169C7.59838 4.11284 8.90986 4.06889 8.90986 4.03398C8.90986 3.99916 8.3905 3.45268 7.75573 2.81954ZM23.7212 14.0855C23.7212 8.11276 23.7212 7.44136 23.397 7.19271C23.356 7.16122 23.3097 7.13651 23.2576 7.10867L23.2456 7.10227C23.1222 7.03619 19.8137 7.0032 13.3103 7.0032C3.55989 7.0032 3.55989 7.0032 3.27741 7.29799C2.94435 7.64558 2.76392 20.0365 3.08092 20.7952C3.09636 20.8321 3.10908 20.8669 3.12106 20.8998C3.14292 20.9597 3.16234 21.0129 3.19146 21.0601C3.42297 21.4356 4.26736 21.4332 11.8247 21.4117C12.3453 21.4102 12.8978 21.4087 13.4841 21.4071C23.1599 21.3817 23.1599 21.3817 23.4406 21.0676C23.4619 21.0438 23.4816 21.0217 23.4998 20.9985C23.7212 20.716 23.7212 20.26 23.7212 14.2584V14.0855ZM4.89888 11.4658C4.90965 11.4566 6.13034 11.2111 7.61147 10.9204C9.09261 10.6297 10.3361 10.3867 10.3748 10.3806C10.4134 10.3744 10.4677 10.4667 10.4953 10.5858C10.6428 11.2214 10.8334 12.2304 10.8334 12.3753C10.8334 12.543 5.53 13.6579 5.3915 13.5193C5.33562 13.4635 4.86368 11.496 4.89888 11.4658ZM16.3155 11.3793C16.4213 10.8651 16.5079 10.4246 16.5079 10.4005C16.5079 10.3762 16.5837 10.3789 16.6762 10.4064C16.7687 10.4338 18.0131 10.6789 19.4413 10.951C20.8695 11.223 22.049 11.4559 22.0622 11.4685C22.1301 11.5334 21.6246 13.4887 21.532 13.5196C21.4724 13.5395 20.5016 13.3767 19.3746 13.1579C18.2475 12.939 17.055 12.7133 16.7243 12.6565C16.6851 12.6498 16.6482 12.6437 16.6135 12.6379C16.3951 12.6018 16.2649 12.5802 16.2005 12.5035C16.1056 12.3902 16.1541 12.1565 16.2744 11.578L16.3155 11.3793ZM13.1868 16.242C12.5808 17.4138 11.6529 17.6766 11.0488 16.8473C10.9695 16.7384 10.9234 16.6751 10.8638 16.6576C10.7812 16.6332 10.6727 16.6968 10.4136 16.8487C9.86982 17.1674 9.86578 17.2269 10.3569 17.694C11.253 18.5466 12.2223 18.7267 12.9925 18.1837C13.4272 17.8773 13.4272 17.8773 13.9078 18.1761C14.5108 18.5509 15.2006 18.5897 15.7866 18.2816C16.1612 18.0848 17.067 17.2392 16.9828 17.1649C16.5058 16.7437 16.1393 16.6395 15.9276 16.8648C15.5519 17.2647 14.9692 17.4333 14.5574 17.2611C14.2225 17.1213 13.5338 16.3223 13.5288 16.0679C13.5245 15.8497 13.3415 15.9428 13.1868 16.242Z" fill="white"/>
</svg>
