<svg width="46" height="46" viewBox="0 0 46 46" fill="none" xmlns="http://www.w3.org/2000/svg">
<path d="M0 3.29475C0 1.47487 1.51225 0 3.37812 0H42.6219C44.4878 0 46 1.47487 46 3.29475V42.7052C46 44.5251 44.4878 46 42.6219 46H3.37812C1.51225 46 0 44.5251 0 42.7052V3.29475ZM14.2111 38.5078V17.7359H7.30825V38.5078H14.2111ZM10.7611 14.8983C13.1675 14.8983 14.6654 13.3055 14.6654 11.3103C14.6222 9.27188 13.1704 7.72225 10.8071 7.72225C8.44388 7.72225 6.9 9.27475 6.9 11.3103C6.9 13.3055 8.39787 14.8983 10.7151 14.8983H10.7611ZM24.8716 38.5078V26.9071C24.8716 26.2861 24.9176 25.6651 25.1016 25.2224C25.599 23.9832 26.7346 22.6981 28.6436 22.6981C31.142 22.6981 32.1396 24.6014 32.1396 27.3959V38.5078H39.0425V26.5938C39.0425 20.2113 35.6385 17.2443 31.096 17.2443C27.4333 17.2443 25.7916 19.2568 24.8716 20.6741V20.746H24.8256C24.8409 20.722 24.8562 20.698 24.8716 20.6741V17.7359H17.9716C18.0579 19.6851 17.9716 38.5078 17.9716 38.5078H24.8716Z" fill="white"/>
</svg>
