<svg width="23" height="18" viewBox="0 0 23 18" fill="none" xmlns="http://www.w3.org/2000/svg">
<path d="M19.0472 1.83716C17.6131 1.17915 16.0753 0.694355 14.4674 0.416692C14.4381 0.411333 14.4089 0.424725 14.3938 0.45151C14.196 0.803274 13.9769 1.26218 13.8235 1.62288C12.0941 1.36397 10.3736 1.36397 8.67968 1.62288C8.52623 1.25416 8.2992 0.803274 8.10054 0.45151C8.08545 0.425619 8.0562 0.412227 8.02692 0.416692C6.41992 0.693467 4.88209 1.17826 3.44713 1.83716C3.4347 1.84252 3.42406 1.85146 3.41699 1.86306C0.500055 6.22089 -0.299016 10.4716 0.0929814 14.6696C0.0947551 14.6902 0.106284 14.7098 0.122248 14.7223C2.04676 16.1356 3.91098 16.9936 5.74057 17.5624C5.76986 17.5713 5.80088 17.5606 5.81951 17.5365C6.25231 16.9454 6.6381 16.3223 6.96888 15.6669C6.98841 15.6285 6.96977 15.583 6.92987 15.5678C6.31794 15.3357 5.73525 15.0527 5.17475 14.7312C5.13041 14.7054 5.12686 14.6419 5.16765 14.6116C5.2856 14.5232 5.40358 14.4312 5.51621 14.3384C5.53658 14.3214 5.56498 14.3179 5.58894 14.3286C9.2712 16.0098 13.2577 16.0098 16.8965 14.3286C16.9205 14.317 16.9489 14.3205 16.9701 14.3375C17.0828 14.4304 17.2007 14.5232 17.3196 14.6116C17.3604 14.6419 17.3577 14.7054 17.3134 14.7312C16.7529 15.0589 16.1702 15.3357 15.5574 15.5669C15.5175 15.5821 15.4997 15.6285 15.5192 15.6669C15.8571 16.3213 16.2429 16.9445 16.6677 17.5356C16.6855 17.5606 16.7174 17.5713 16.7467 17.5624C18.5851 16.9936 20.4493 16.1356 22.3738 14.7223C22.3907 14.7098 22.4013 14.6911 22.4031 14.6705C22.8723 9.81715 21.6173 5.60129 19.0765 1.86394C19.0702 1.85146 19.0596 1.84252 19.0472 1.83716ZM7.51877 12.1135C6.41016 12.1135 5.49669 11.0957 5.49669 9.84574C5.49669 8.59578 6.39244 7.57799 7.51877 7.57799C8.65394 7.57799 9.55857 8.60472 9.54082 9.84574C9.54082 11.0957 8.64507 12.1135 7.51877 12.1135ZM14.9951 12.1135C13.8865 12.1135 12.973 11.0957 12.973 9.84574C12.973 8.59578 13.8687 7.57799 14.9951 7.57799C16.1303 7.57799 17.0349 8.60472 17.0172 9.84574C17.0172 11.0957 16.1303 12.1135 14.9951 12.1135Z" fill="white"/>
</svg>
