<svg width="40" height="46" viewBox="0 0 40 46" fill="none" xmlns="http://www.w3.org/2000/svg">
<path d="M26.5371 21.85C26.5371 23.2531 25.5085 24.403 24.2056 24.403C22.9256 24.403 21.8742 23.2531 21.8742 21.85C21.8742 20.447 22.9029 19.2971 24.2056 19.2971C25.5086 19.2971 26.5371 20.447 26.5371 21.85ZM15.8628 19.2971C14.5599 19.2971 13.5313 20.447 13.5313 21.85C13.5313 23.2531 14.5828 24.403 15.8628 24.403C17.1656 24.403 18.1942 23.2531 18.1942 21.85C18.2171 20.447 17.1656 19.2971 15.8628 19.2971ZM40 4.73802V46C34.2416 40.8794 36.0833 42.5745 29.3941 36.3171L30.6058 40.572H4.68554C2.10277 40.572 0 38.4562 0 35.8339V4.73802C0 2.11591 2.10277 0 4.68554 0H35.3141C37.8971 0 40 2.11591 40 4.73802ZM33.4856 26.5419C33.4856 19.136 30.1942 13.133 30.1942 13.133C26.9029 10.649 23.7713 10.718 23.7713 10.718L23.4513 11.0861C27.3372 12.282 29.1429 14.0071 29.1429 14.0071C23.7132 11.0126 17.3353 11.0121 12.0685 13.3401C11.2226 13.731 10.7199 14.0071 10.7199 14.0071C10.7199 14.0071 12.617 12.1901 16.7313 10.994L16.5028 10.7179C16.5028 10.7179 13.3713 10.649 10.0799 13.1329C10.0799 13.1329 6.78851 19.1359 6.78851 26.5418C6.78851 26.5418 8.70852 29.8768 13.7598 30.0378C13.7598 30.0378 14.6056 29.0029 15.2912 28.1288C12.3883 27.2548 11.2914 25.415 11.2914 25.415C11.6276 25.6515 12.182 25.9588 12.2285 25.9898C16.0864 28.1641 21.5667 28.8762 26.4915 26.7949C27.2914 26.496 28.1829 26.0589 29.1199 25.4379C29.1199 25.4379 27.9771 27.324 24.9828 28.1749C25.6686 29.0488 26.4915 30.0378 26.4915 30.0378C31.5428 29.8769 33.4856 26.5419 33.4856 26.5419Z" fill="white"/>
</svg>
