<svg width="23" height="16" viewBox="0 0 23 16" fill="none" xmlns="http://www.w3.org/2000/svg">
<path d="M22.5314 2.58418C22.2721 1.6155 21.5109 0.854261 20.5422 0.594959C18.7863 0.124512 11.75 0.124512 11.75 0.124512C11.75 0.124512 4.71366 0.124512 2.95966 0.594959C1.99099 0.854261 1.22975 1.6155 0.970448 2.58418C0.5 4.33817 0.5 7.99988 0.5 7.99988C0.5 7.99988 0.5 11.6616 0.970448 13.4156C1.22975 14.3843 1.99099 15.1455 2.95966 15.4048C4.71366 15.8753 11.75 15.8753 11.75 15.8753C11.75 15.8753 18.7863 15.8753 20.5403 15.4048C21.509 15.1455 22.2703 14.3843 22.5296 13.4156C23 11.6616 23 7.99988 23 7.99988C23 7.99988 23 4.33817 22.5296 2.58418H22.5314Z" fill="white"/>
<path d="M9.5 11.3743V4.625L15.3473 7.99963L9.5 11.3743Z" fill="#040404"/>
</svg>
