<svg width="67" height="47" viewBox="0 0 67 47" fill="none" xmlns="http://www.w3.org/2000/svg">
<path d="M26.9167 32.9167L44.0004 23.0417L26.9167 13.1667V32.9167ZM64.9683 7.14292C65.3963 8.69 65.6925 10.7637 65.89 13.3971C66.1204 16.0304 66.2192 18.3017 66.2192 20.2767L66.4167 23.0417C66.4167 30.2504 65.89 35.55 64.9683 38.9404C64.1454 41.9029 62.2363 43.8121 59.2738 44.635C57.7267 45.0629 54.8958 45.3592 50.5508 45.5567C46.2717 45.7871 42.3546 45.8858 38.7338 45.8858L33.5 46.0833C19.7079 46.0833 11.1167 45.5567 7.72626 44.635C4.76376 43.8121 2.85459 41.9029 2.03168 38.9404C1.60376 37.3933 1.30751 35.3196 1.11001 32.6862C0.879594 30.0529 0.780843 27.7817 0.780843 25.8067L0.583344 23.0417C0.583344 15.8329 1.11001 10.5333 2.03168 7.14292C2.85459 4.18042 4.76376 2.27125 7.72626 1.44833C9.27334 1.02042 12.1042 0.724166 16.4492 0.526666C20.7283 0.296249 24.6454 0.1975 28.2663 0.1975L33.5 0C47.2921 0 55.8833 0.526667 59.2738 1.44833C62.2363 2.27125 64.1454 4.18042 64.9683 7.14292Z" fill="white"/>
</svg>
